<?xml version="1.0" standalone="no"?>
<!DOCTYPE svg PUBLIC "-//W3C//DTD SVG 20010904//EN"
 "http://www.w3.org/TR/2001/REC-SVG-20010904/DTD/svg10.dtd">
<svg version="1.0" xmlns="http://www.w3.org/2000/svg"
 width="688.000000pt" height="688.000000pt" viewBox="0 0 688.000000 688.000000"
 preserveAspectRatio="xMidYMid meet">
<metadata>
Created by potrace 1.11, written by Peter Selinger 2001-2013
</metadata>
<g transform="translate(0.000000,688.000000) scale(0.100000,-0.100000)"
fill="#000000" stroke="none">
<path d="M5060 6779 c-44 -26 -67 -56 -74 -100 -17 -109 78 -198 182 -170 42
12 92 49 95 71 2 8 5 20 9 25 12 19 1 101 -16 128 -41 61 -132 83 -196 46z"/>
<path d="M3107 6643 c-3 -2 -35 -6 -73 -9 -38 -3 -80 -7 -94 -10 -14 -3 -43
-7 -65 -9 -22 -3 -51 -7 -65 -10 -14 -3 -38 -8 -55 -10 -16 -3 -37 -8 -45 -10
-8 -2 -28 -7 -45 -10 -128 -22 -401 -107 -550 -170 -314 -134 -636 -330 -853
-520 -176 -153 -293 -273 -437 -446 -77 -92 -225 -308 -291 -424 -51 -91 -144
-276 -144 -287 0 -6 -7 -19 -15 -28 -8 -9 -16 -25 -18 -36 -2 -10 -9 -30 -14
-44 -45 -106 -73 -186 -111 -315 -36 -121 -55 -194 -65 -255 -3 -14 -12 -65
-20 -115 -9 -49 -19 -112 -22 -140 -4 -27 -8 -61 -10 -75 -20 -151 -20 -514 0
-680 3 -19 7 -60 11 -90 3 -30 8 -58 10 -61 1 -3 6 -28 9 -56 3 -27 8 -60 11
-74 3 -13 7 -36 10 -50 4 -20 57 -228 68 -264 1 -5 11 -37 21 -70 11 -33 20
-62 20 -65 1 -3 5 -14 10 -25 4 -11 23 -60 42 -110 33 -84 167 -366 195 -410
26 -39 62 -100 63 -105 3 -26 229 -331 336 -453 34 -40 230 -237 265 -267 88
-77 217 -181 236 -191 13 -7 28 -17 33 -24 16 -19 211 -145 223 -145 7 0 12
-4 12 -9 0 -5 10 -13 23 -17 12 -4 24 -9 27 -13 22 -27 458 -231 494 -231 7 0
16 -3 20 -8 4 -4 11 -7 14 -7 4 -1 43 -13 87 -28 90 -30 294 -84 370 -97 28
-5 61 -11 75 -14 14 -2 48 -8 75 -11 28 -4 61 -9 75 -11 27 -4 113 -13 195
-19 57 -5 345 -5 420 -1 88 6 210 18 215 21 3 2 33 7 65 10 33 4 63 9 66 11 3
1 28 6 55 10 27 3 52 8 55 10 3 2 19 6 35 8 16 3 39 8 52 11 12 3 32 7 43 10
12 2 47 12 78 21 31 10 61 18 66 20 38 8 271 91 320 114 11 5 61 28 110 51 50
23 92 43 95 43 20 3 267 150 366 218 131 90 160 112 268 203 104 88 286 260
286 271 0 1 15 17 33 36 17 19 50 56 72 83 22 26 49 58 60 71 20 22 90 117
150 204 18 25 60 92 94 150 34 58 66 112 71 120 27 43 138 280 140 298 1 4 7
16 14 27 10 15 43 102 51 135 1 3 5 14 9 25 23 60 28 75 28 82 0 4 5 19 10 33
5 14 12 32 14 40 2 8 15 58 29 110 14 52 28 111 30 130 3 19 8 43 11 52 2 9 6
25 8 35 8 42 19 110 23 143 2 19 6 49 8 65 21 151 27 549 11 685 -4 36 -9 88
-11 115 -2 28 -7 61 -10 75 -3 14 -7 43 -10 65 -3 21 -10 57 -16 78 -5 21 -12
53 -14 70 -1 18 -8 46 -15 62 -6 17 -11 31 -11 33 1 1 -1 12 -4 25 -3 12 -7
31 -9 42 -1 11 -6 27 -9 35 -3 8 -22 68 -42 133 -31 97 -40 117 -54 112 -11
-3 -27 5 -42 21 -28 30 -65 51 -102 58 -15 2 -30 7 -34 9 -17 11 -117 16 -127
8 -7 -6 -27 -6 -51 -1 -108 23 -136 19 -162 -23 -15 -24 -70 -56 -116 -69 -36
-9 -54 -9 -89 1 -63 19 -74 24 -169 71 -84 42 -87 43 -134 31 -40 -10 -51 -9
-71 4 -20 13 -32 14 -66 5 -63 -17 -113 7 -213 105 -54 53 -128 155 -150 208
-12 29 -22 35 -90 55 -134 39 -230 118 -282 230 -14 29 -26 58 -27 65 -2 7 -6
23 -9 37 -11 42 -15 82 -16 155 l-1 70 -39 16 c-23 10 -52 34 -70 59 -48 66
-64 140 -64 291 l0 97 38 45 c21 26 40 54 43 64 10 47 8 60 -8 89 -30 52 -37
94 -39 221 -1 75 -3 77 -56 89 -5 1 -37 10 -70 19 -56 15 -114 28 -175 40 -77
15 -187 34 -200 34 -8 0 -28 2 -43 6 -15 3 -54 8 -85 11 -70 7 -569 13 -575 7z"/>
<path d="M5070 5604 c-86 -37 -115 -166 -51 -229 38 -38 50 -45 87 -51 86 -13
166 50 169 135 6 118 -97 190 -205 145z"/>
<path d="M6550 5301 c-42 -22 -80 -83 -80 -130 0 -50 37 -108 84 -131 131 -62
264 77 194 202 -40 71 -127 97 -198 59z"/>
</g>
</svg>
